<?xml version="1.0" encoding="utf-8"?>
<svg xmlns="http://www.w3.org/2000/svg" xmlns:xlink="http://www.w3.org/1999/xlink" xml:space="preserve" width="348" height="348" viewBox="0 0 348 348"><rect width="348" height="348" fill="#ffffff" x="0" y="0"/><g fill="#000000">
<g transform="translate(132,24) scale(2.06)"><rect width="6" height="6"/></g>
<g transform="translate(156,24) scale(2.06)"><rect width="6" height="6"/></g>
<g transform="translate(216,24) scale(2.06)"><rect width="6" height="6"/></g>
<g transform="translate(120,36) scale(2.06)"><rect width="6" height="6"/></g>
<g transform="translate(132,36) scale(2.06)"><rect width="6" height="6"/></g>
<g transform="translate(168,36) scale(2.06)"><rect width="6" height="6"/></g>
<g transform="translate(180,36) scale(2.06)"><rect width="6" height="6"/></g>
<g transform="translate(192,36) scale(2.06)"><rect width="6" height="6"/></g>
<g transform="translate(204,36) scale(2.06)"><rect width="6" height="6"/></g>
<g transform="translate(216,36) scale(2.06)"><rect width="6" height="6"/></g>
<g transform="translate(132,48) scale(2.06)"><rect width="6" height="6"/></g>
<g transform="translate(144,48) scale(2.06)"><rect width="6" height="6"/></g>
<g transform="translate(192,48) scale(2.06)"><rect width="6" height="6"/></g>
<g transform="translate(204,48) scale(2.06)"><rect width="6" height="6"/></g>
<g transform="translate(120,60) scale(2.06)"><rect width="6" height="6"/></g>
<g transform="translate(144,60) scale(2.06)"><rect width="6" height="6"/></g>
<g transform="translate(180,60) scale(2.06)"><rect width="6" height="6"/></g>
<g transform="translate(192,60) scale(2.06)"><rect width="6" height="6"/></g>
<g transform="translate(204,60) scale(2.06)"><rect width="6" height="6"/></g>
<g transform="translate(156,72) scale(2.06)"><rect width="6" height="6"/></g>
<g transform="translate(216,72) scale(2.06)"><rect width="6" height="6"/></g>
<g transform="translate(120,84) scale(2.06)"><rect width="6" height="6"/></g>
<g transform="translate(132,84) scale(2.06)"><rect width="6" height="6"/></g>
<g transform="translate(144,84) scale(2.06)"><rect width="6" height="6"/></g>
<g transform="translate(192,84) scale(2.06)"><rect width="6" height="6"/></g>
<g transform="translate(204,84) scale(2.06)"><rect width="6" height="6"/></g>
<g transform="translate(120,96) scale(2.06)"><rect width="6" height="6"/></g>
<g transform="translate(144,96) scale(2.06)"><rect width="6" height="6"/></g>
<g transform="translate(168,96) scale(2.06)"><rect width="6" height="6"/></g>
<g transform="translate(192,96) scale(2.06)"><rect width="6" height="6"/></g>
<g transform="translate(216,96) scale(2.06)"><rect width="6" height="6"/></g>
<g transform="translate(132,108) scale(2.06)"><rect width="6" height="6"/></g>
<g transform="translate(168,108) scale(2.06)"><rect width="6" height="6"/></g>
<g transform="translate(192,108) scale(2.06)"><rect width="6" height="6"/></g>
<g transform="translate(204,108) scale(2.06)"><rect width="6" height="6"/></g>
<g transform="translate(24,120) scale(2.06)"><rect width="6" height="6"/></g>
<g transform="translate(36,120) scale(2.06)"><rect width="6" height="6"/></g>
<g transform="translate(48,120) scale(2.06)"><rect width="6" height="6"/></g>
<g transform="translate(60,120) scale(2.06)"><rect width="6" height="6"/></g>
<g transform="translate(72,120) scale(2.06)"><rect width="6" height="6"/></g>
<g transform="translate(96,120) scale(2.06)"><rect width="6" height="6"/></g>
<g transform="translate(108,120) scale(2.06)"><rect width="6" height="6"/></g>
<g transform="translate(120,120) scale(2.06)"><rect width="6" height="6"/></g>
<g transform="translate(132,120) scale(2.06)"><rect width="6" height="6"/></g>
<g transform="translate(156,120) scale(2.06)"><rect width="6" height="6"/></g>
<g transform="translate(168,120) scale(2.06)"><rect width="6" height="6"/></g>
<g transform="translate(180,120) scale(2.06)"><rect width="6" height="6"/></g>
<g transform="translate(204,120) scale(2.06)"><rect width="6" height="6"/></g>
<g transform="translate(216,120) scale(2.06)"><rect width="6" height="6"/></g>
<g transform="translate(228,120) scale(2.06)"><rect width="6" height="6"/></g>
<g transform="translate(252,120) scale(2.06)"><rect width="6" height="6"/></g>
<g transform="translate(276,120) scale(2.06)"><rect width="6" height="6"/></g>
<g transform="translate(300,120) scale(2.06)"><rect width="6" height="6"/></g>
<g transform="translate(72,132) scale(2.06)"><rect width="6" height="6"/></g>
<g transform="translate(120,132) scale(2.06)"><rect width="6" height="6"/></g>
<g transform="translate(156,132) scale(2.06)"><rect width="6" height="6"/></g>
<g transform="translate(180,132) scale(2.06)"><rect width="6" height="6"/></g>
<g transform="translate(216,132) scale(2.06)"><rect width="6" height="6"/></g>
<g transform="translate(228,132) scale(2.06)"><rect width="6" height="6"/></g>
<g transform="translate(252,132) scale(2.06)"><rect width="6" height="6"/></g>
<g transform="translate(300,132) scale(2.06)"><rect width="6" height="6"/></g>
<g transform="translate(72,144) scale(2.06)"><rect width="6" height="6"/></g>
<g transform="translate(96,144) scale(2.06)"><rect width="6" height="6"/></g>
<g transform="translate(108,144) scale(2.06)"><rect width="6" height="6"/></g>
<g transform="translate(120,144) scale(2.06)"><rect width="6" height="6"/></g>
<g transform="translate(144,144) scale(2.06)"><rect width="6" height="6"/></g>
<g transform="translate(168,144) scale(2.06)"><rect width="6" height="6"/></g>
<g transform="translate(180,144) scale(2.06)"><rect width="6" height="6"/></g>
<g transform="translate(192,144) scale(2.06)"><rect width="6" height="6"/></g>
<g transform="translate(204,144) scale(2.06)"><rect width="6" height="6"/></g>
<g transform="translate(228,144) scale(2.06)"><rect width="6" height="6"/></g>
<g transform="translate(240,144) scale(2.06)"><rect width="6" height="6"/></g>
<g transform="translate(252,144) scale(2.06)"><rect width="6" height="6"/></g>
<g transform="translate(276,144) scale(2.06)"><rect width="6" height="6"/></g>
<g transform="translate(300,144) scale(2.06)"><rect width="6" height="6"/></g>
<g transform="translate(312,144) scale(2.06)"><rect width="6" height="6"/></g>
<g transform="translate(24,156) scale(2.06)"><rect width="6" height="6"/></g>
<g transform="translate(108,156) scale(2.06)"><rect width="6" height="6"/></g>
<g transform="translate(156,156) scale(2.06)"><rect width="6" height="6"/></g>
<g transform="translate(216,156) scale(2.06)"><rect width="6" height="6"/></g>
<g transform="translate(252,156) scale(2.06)"><rect width="6" height="6"/></g>
<g transform="translate(312,156) scale(2.06)"><rect width="6" height="6"/></g>
<g transform="translate(48,168) scale(2.06)"><rect width="6" height="6"/></g>
<g transform="translate(96,168) scale(2.06)"><rect width="6" height="6"/></g>
<g transform="translate(120,168) scale(2.06)"><rect width="6" height="6"/></g>
<g transform="translate(132,168) scale(2.06)"><rect width="6" height="6"/></g>
<g transform="translate(144,168) scale(2.06)"><rect width="6" height="6"/></g>
<g transform="translate(180,168) scale(2.06)"><rect width="6" height="6"/></g>
<g transform="translate(192,168) scale(2.06)"><rect width="6" height="6"/></g>
<g transform="translate(228,168) scale(2.06)"><rect width="6" height="6"/></g>
<g transform="translate(240,168) scale(2.06)"><rect width="6" height="6"/></g>
<g transform="translate(264,168) scale(2.06)"><rect width="6" height="6"/></g>
<g transform="translate(288,168) scale(2.06)"><rect width="6" height="6"/></g>
<g transform="translate(300,168) scale(2.06)"><rect width="6" height="6"/></g>
<g transform="translate(312,168) scale(2.06)"><rect width="6" height="6"/></g>
<g transform="translate(24,180) scale(2.06)"><rect width="6" height="6"/></g>
<g transform="translate(36,180) scale(2.06)"><rect width="6" height="6"/></g>
<g transform="translate(48,180) scale(2.06)"><rect width="6" height="6"/></g>
<g transform="translate(60,180) scale(2.06)"><rect width="6" height="6"/></g>
<g transform="translate(108,180) scale(2.06)"><rect width="6" height="6"/></g>
<g transform="translate(132,180) scale(2.06)"><rect width="6" height="6"/></g>
<g transform="translate(156,180) scale(2.06)"><rect width="6" height="6"/></g>
<g transform="translate(180,180) scale(2.06)"><rect width="6" height="6"/></g>
<g transform="translate(252,180) scale(2.06)"><rect width="6" height="6"/></g>
<g transform="translate(276,180) scale(2.06)"><rect width="6" height="6"/></g>
<g transform="translate(300,180) scale(2.06)"><rect width="6" height="6"/></g>
<g transform="translate(24,192) scale(2.06)"><rect width="6" height="6"/></g>
<g transform="translate(48,192) scale(2.06)"><rect width="6" height="6"/></g>
<g transform="translate(96,192) scale(2.06)"><rect width="6" height="6"/></g>
<g transform="translate(144,192) scale(2.06)"><rect width="6" height="6"/></g>
<g transform="translate(192,192) scale(2.06)"><rect width="6" height="6"/></g>
<g transform="translate(204,192) scale(2.06)"><rect width="6" height="6"/></g>
<g transform="translate(252,192) scale(2.06)"><rect width="6" height="6"/></g>
<g transform="translate(264,192) scale(2.06)"><rect width="6" height="6"/></g>
<g transform="translate(276,192) scale(2.06)"><rect width="6" height="6"/></g>
<g transform="translate(300,192) scale(2.06)"><rect width="6" height="6"/></g>
<g transform="translate(312,192) scale(2.06)"><rect width="6" height="6"/></g>
<g transform="translate(24,204) scale(2.06)"><rect width="6" height="6"/></g>
<g transform="translate(48,204) scale(2.06)"><rect width="6" height="6"/></g>
<g transform="translate(72,204) scale(2.06)"><rect width="6" height="6"/></g>
<g transform="translate(108,204) scale(2.06)"><rect width="6" height="6"/></g>
<g transform="translate(204,204) scale(2.06)"><rect width="6" height="6"/></g>
<g transform="translate(216,204) scale(2.06)"><rect width="6" height="6"/></g>
<g transform="translate(228,204) scale(2.06)"><rect width="6" height="6"/></g>
<g transform="translate(240,204) scale(2.06)"><rect width="6" height="6"/></g>
<g transform="translate(252,204) scale(2.06)"><rect width="6" height="6"/></g>
<g transform="translate(264,204) scale(2.06)"><rect width="6" height="6"/></g>
<g transform="translate(312,204) scale(2.06)"><rect width="6" height="6"/></g>
<g transform="translate(24,216) scale(2.06)"><rect width="6" height="6"/></g>
<g transform="translate(48,216) scale(2.06)"><rect width="6" height="6"/></g>
<g transform="translate(72,216) scale(2.06)"><rect width="6" height="6"/></g>
<g transform="translate(84,216) scale(2.06)"><rect width="6" height="6"/></g>
<g transform="translate(96,216) scale(2.06)"><rect width="6" height="6"/></g>
<g transform="translate(108,216) scale(2.06)"><rect width="6" height="6"/></g>
<g transform="translate(120,216) scale(2.06)"><rect width="6" height="6"/></g>
<g transform="translate(144,216) scale(2.06)"><rect width="6" height="6"/></g>
<g transform="translate(168,216) scale(2.06)"><rect width="6" height="6"/></g>
<g transform="translate(180,216) scale(2.06)"><rect width="6" height="6"/></g>
<g transform="translate(192,216) scale(2.06)"><rect width="6" height="6"/></g>
<g transform="translate(216,216) scale(2.06)"><rect width="6" height="6"/></g>
<g transform="translate(228,216) scale(2.06)"><rect width="6" height="6"/></g>
<g transform="translate(240,216) scale(2.06)"><rect width="6" height="6"/></g>
<g transform="translate(252,216) scale(2.06)"><rect width="6" height="6"/></g>
<g transform="translate(264,216) scale(2.06)"><rect width="6" height="6"/></g>
<g transform="translate(288,216) scale(2.06)"><rect width="6" height="6"/></g>
<g transform="translate(120,228) scale(2.06)"><rect width="6" height="6"/></g>
<g transform="translate(144,228) scale(2.06)"><rect width="6" height="6"/></g>
<g transform="translate(156,228) scale(2.06)"><rect width="6" height="6"/></g>
<g transform="translate(180,228) scale(2.06)"><rect width="6" height="6"/></g>
<g transform="translate(204,228) scale(2.06)"><rect width="6" height="6"/></g>
<g transform="translate(216,228) scale(2.06)"><rect width="6" height="6"/></g>
<g transform="translate(264,228) scale(2.06)"><rect width="6" height="6"/></g>
<g transform="translate(276,228) scale(2.06)"><rect width="6" height="6"/></g>
<g transform="translate(120,240) scale(2.06)"><rect width="6" height="6"/></g>
<g transform="translate(216,240) scale(2.06)"><rect width="6" height="6"/></g>
<g transform="translate(240,240) scale(2.06)"><rect width="6" height="6"/></g>
<g transform="translate(264,240) scale(2.06)"><rect width="6" height="6"/></g>
<g transform="translate(288,240) scale(2.06)"><rect width="6" height="6"/></g>
<g transform="translate(300,240) scale(2.06)"><rect width="6" height="6"/></g>
<g transform="translate(312,240) scale(2.06)"><rect width="6" height="6"/></g>
<g transform="translate(156,252) scale(2.06)"><rect width="6" height="6"/></g>
<g transform="translate(192,252) scale(2.06)"><rect width="6" height="6"/></g>
<g transform="translate(216,252) scale(2.06)"><rect width="6" height="6"/></g>
<g transform="translate(264,252) scale(2.06)"><rect width="6" height="6"/></g>
<g transform="translate(276,252) scale(2.06)"><rect width="6" height="6"/></g>
<g transform="translate(300,252) scale(2.06)"><rect width="6" height="6"/></g>
<g transform="translate(120,264) scale(2.06)"><rect width="6" height="6"/></g>
<g transform="translate(156,264) scale(2.06)"><rect width="6" height="6"/></g>
<g transform="translate(168,264) scale(2.06)"><rect width="6" height="6"/></g>
<g transform="translate(180,264) scale(2.06)"><rect width="6" height="6"/></g>
<g transform="translate(192,264) scale(2.06)"><rect width="6" height="6"/></g>
<g transform="translate(204,264) scale(2.06)"><rect width="6" height="6"/></g>
<g transform="translate(216,264) scale(2.06)"><rect width="6" height="6"/></g>
<g transform="translate(228,264) scale(2.06)"><rect width="6" height="6"/></g>
<g transform="translate(240,264) scale(2.06)"><rect width="6" height="6"/></g>
<g transform="translate(252,264) scale(2.06)"><rect width="6" height="6"/></g>
<g transform="translate(264,264) scale(2.06)"><rect width="6" height="6"/></g>
<g transform="translate(288,264) scale(2.06)"><rect width="6" height="6"/></g>
<g transform="translate(300,264) scale(2.06)"><rect width="6" height="6"/></g>
<g transform="translate(120,276) scale(2.06)"><rect width="6" height="6"/></g>
<g transform="translate(144,276) scale(2.06)"><rect width="6" height="6"/></g>
<g transform="translate(156,276) scale(2.06)"><rect width="6" height="6"/></g>
<g transform="translate(168,276) scale(2.06)"><rect width="6" height="6"/></g>
<g transform="translate(180,276) scale(2.06)"><rect width="6" height="6"/></g>
<g transform="translate(228,276) scale(2.06)"><rect width="6" height="6"/></g>
<g transform="translate(240,276) scale(2.06)"><rect width="6" height="6"/></g>
<g transform="translate(264,276) scale(2.06)"><rect width="6" height="6"/></g>
<g transform="translate(276,276) scale(2.06)"><rect width="6" height="6"/></g>
<g transform="translate(288,276) scale(2.06)"><rect width="6" height="6"/></g>
<g transform="translate(300,276) scale(2.06)"><rect width="6" height="6"/></g>
<g transform="translate(312,276) scale(2.06)"><rect width="6" height="6"/></g>
<g transform="translate(120,288) scale(2.06)"><rect width="6" height="6"/></g>
<g transform="translate(144,288) scale(2.06)"><rect width="6" height="6"/></g>
<g transform="translate(180,288) scale(2.06)"><rect width="6" height="6"/></g>
<g transform="translate(192,288) scale(2.06)"><rect width="6" height="6"/></g>
<g transform="translate(204,288) scale(2.06)"><rect width="6" height="6"/></g>
<g transform="translate(228,288) scale(2.06)"><rect width="6" height="6"/></g>
<g transform="translate(276,288) scale(2.06)"><rect width="6" height="6"/></g>
<g transform="translate(288,288) scale(2.06)"><rect width="6" height="6"/></g>
<g transform="translate(312,288) scale(2.06)"><rect width="6" height="6"/></g>
<g transform="translate(120,300) scale(2.06)"><rect width="6" height="6"/></g>
<g transform="translate(132,300) scale(2.06)"><rect width="6" height="6"/></g>
<g transform="translate(144,300) scale(2.06)"><rect width="6" height="6"/></g>
<g transform="translate(156,300) scale(2.06)"><rect width="6" height="6"/></g>
<g transform="translate(168,300) scale(2.06)"><rect width="6" height="6"/></g>
<g transform="translate(204,300) scale(2.06)"><rect width="6" height="6"/></g>
<g transform="translate(216,300) scale(2.06)"><rect width="6" height="6"/></g>
<g transform="translate(228,300) scale(2.06)"><rect width="6" height="6"/></g>
<g transform="translate(240,300) scale(2.06)"><rect width="6" height="6"/></g>
<g transform="translate(252,300) scale(2.06)"><rect width="6" height="6"/></g>
<g transform="translate(264,300) scale(2.06)"><rect width="6" height="6"/></g>
<g transform="translate(276,300) scale(2.06)"><rect width="6" height="6"/></g>
<g transform="translate(312,300) scale(2.06)"><rect width="6" height="6"/></g>
<g transform="translate(120,312) scale(2.06)"><rect width="6" height="6"/></g>
<g transform="translate(156,312) scale(2.06)"><rect width="6" height="6"/></g>
<g transform="translate(168,312) scale(2.06)"><rect width="6" height="6"/></g>
<g transform="translate(180,312) scale(2.06)"><rect width="6" height="6"/></g>
<g transform="translate(192,312) scale(2.06)"><rect width="6" height="6"/></g>
<g transform="translate(240,312) scale(2.06)"><rect width="6" height="6"/></g>
<g transform="translate(252,312) scale(2.06)"><rect width="6" height="6"/></g>
<g transform="translate(264,312) scale(2.06)"><rect width="6" height="6"/></g>
<g transform="translate(276,312) scale(2.06)"><rect width="6" height="6"/></g>
<g transform="translate(288,312) scale(2.06)"><rect width="6" height="6"/></g>
<g transform="translate(300,312) scale(2.06)"><rect width="6" height="6"/></g>
<g transform="translate(312,312) scale(2.06)"><rect width="6" height="6"/></g>
<g transform="translate(24,24)"><g transform="scale(6)"><path d="M0,0v14h14V0H0z M12,12H2V2h10V12z"/></g></g>
<g transform="translate(240,24)"><g transform="scale(6)"><path d="M0,0v14h14V0H0z M12,12H2V2h10V12z"/></g></g>
<g transform="translate(24,240)"><g transform="scale(6)"><path d="M0,0v14h14V0H0z M12,12H2V2h10V12z"/></g></g>
<g transform="translate(48,48)"><g transform="scale(6)"><rect width="6" height="6"/></g></g>
<g transform="translate(264,48)"><g transform="scale(6)"><rect width="6" height="6"/></g></g>
<g transform="translate(48,264)"><g transform="scale(6)"><rect width="6" height="6"/></g></g>
</g></svg>
